<svg width="21" height="21" viewBox="0 0 21 21" fill="none" xmlns="http://www.w3.org/2000/svg">
<path d="M17 18.375C16.885 18.3753 16.7712 18.3528 16.665 18.3088C16.5588 18.2647 16.4624 18.2001 16.3814 18.1186L13.4064 15.148C12.1853 16.1066 10.6774 16.6267 9.125 16.625C7.74053 16.625 6.38715 16.2144 5.23601 15.4453C4.08487 14.6761 3.18766 13.5829 2.65785 12.3038C2.12804 11.0247 1.98941 9.61721 2.2595 8.25937C2.5296 6.9015 3.19629 5.65422 4.17526 4.67526C5.15422 3.69629 6.4015 3.0296 7.75937 2.7595C9.11721 2.48941 10.5247 2.62804 11.8038 3.15785C13.0829 3.68766 14.1761 4.58487 14.9453 5.73601C15.7144 6.88715 16.125 8.24053 16.125 9.625C16.1281 11.1795 15.6079 12.6898 14.648 13.9125L17.6186 16.8875C17.7388 17.0102 17.8204 17.1656 17.8529 17.3342C17.8855 17.5029 17.8676 17.6774 17.8017 17.836C17.7357 17.9946 17.6245 18.1303 17.4819 18.2262C17.3394 18.3221 17.1718 18.3738 17 18.375ZM9.125 4.375C8.08665 4.375 7.07162 4.68291 6.20826 5.25979C5.3449 5.83666 4.67199 6.65661 4.27464 7.61591C3.87727 8.57523 3.77331 9.63086 3.97588 10.6492C4.17845 11.6676 4.67847 12.6031 5.41269 13.3373C6.14692 14.0716 7.08238 14.5715 8.10078 14.7741C9.11914 14.9767 10.1747 14.8727 11.1341 14.4754C12.0934 14.078 12.9133 13.4051 13.4902 12.5417C14.0671 11.6784 14.375 10.6634 14.375 9.625C14.3734 8.23311 13.8197 6.8987 12.8355 5.91448C11.8513 4.93027 10.5169 4.37663 9.125 4.375Z" fill="#D9D9D9"/>
</svg>
