<svg width="77" height="77" viewBox="0 0 77 77" fill="none" xmlns="http://www.w3.org/2000/svg">
<g filter="url(#filter0_d_159_1204)">
<circle cx="38.5" cy="34.5" r="27.5" fill="#EE4619"/>
</g>
<path d="M51.4866 24.0604H25.5132C24.7673 24.0604 24.0519 24.3369 23.5244 24.8292C22.997 25.3215 22.7007 25.9892 22.7007 26.6854V43.3213C22.7007 44.0175 22.997 44.6852 23.5244 45.1774C24.0519 45.6697 24.7673 45.9463 25.5132 45.9463H51.5288C52.2747 45.9463 52.9901 45.6697 53.5175 45.1774C54.045 44.6852 54.3413 44.0175 54.3413 43.3213V26.6919C54.3423 26.3433 54.2689 25.998 54.1253 25.6762C53.9817 25.3543 53.7709 25.0624 53.5052 24.8174C53.2395 24.5725 52.9241 24.3793 52.5775 24.2494C52.2309 24.1194 51.8601 24.0551 51.4866 24.0604ZM34.6116 36.1354L26.3077 44.5222C26.2491 44.581 26.1785 44.6281 26.1 44.6608C26.0214 44.6935 25.9367 44.7111 25.8507 44.7125C25.6958 44.7122 25.547 44.6557 25.4358 44.555C25.3747 44.505 25.3248 44.4441 25.2892 44.3759C25.2535 44.3077 25.2328 44.2336 25.2282 44.1578C25.2237 44.082 25.2353 44.0062 25.2625 43.9347C25.2897 43.8631 25.3319 43.7974 25.3866 43.7413L33.7046 35.3479C33.8205 35.2405 33.9772 35.1802 34.1405 35.1802C34.3039 35.1802 34.4606 35.2405 34.5765 35.3479C34.6912 35.4489 34.7592 35.5878 34.7657 35.7349C34.7723 35.8821 34.717 36.0258 34.6116 36.1354ZM26.2444 26.6591C26.1829 26.6091 26.1329 26.5481 26.0973 26.4796C26.0617 26.4111 26.0413 26.3366 26.0374 26.2606C26.0335 26.1846 26.046 26.1086 26.0744 26.0373C26.1027 25.9659 26.1462 25.9006 26.2022 25.8454C26.2568 25.7892 26.3228 25.7437 26.3964 25.7116C26.47 25.6795 26.5497 25.6614 26.6308 25.6583C26.712 25.6553 26.793 25.6673 26.8691 25.6938C26.9452 25.7203 27.0149 25.7607 27.0741 25.8125L38.4437 35.2625L49.9116 25.6616C50.0347 25.5572 50.1972 25.5027 50.3633 25.51C50.5295 25.5174 50.6857 25.5861 50.7976 25.701C50.9094 25.8159 50.9679 25.9675 50.9599 26.1226C50.952 26.2776 50.8784 26.4234 50.7554 26.5279L38.4437 36.7916L26.2444 26.6591ZM51.1069 44.555C50.9958 44.6557 50.847 44.7122 50.6921 44.7125C50.6061 44.7111 50.5213 44.6935 50.4428 44.6608C50.3643 44.6281 50.2936 44.581 50.2351 44.5222L41.9312 36.1354C41.8725 36.0827 41.8258 36.0195 41.7939 35.9496C41.762 35.8797 41.7455 35.8045 41.7455 35.7285C41.7455 35.6525 41.762 35.5773 41.7939 35.5074C41.8258 35.4374 41.8725 35.3743 41.9312 35.3216C42.0471 35.2142 42.2038 35.1539 42.3671 35.1539C42.5304 35.1539 42.6871 35.2142 42.803 35.3216L51.1562 43.7413C51.2118 43.797 51.2548 43.8626 51.2825 43.9342C51.3103 44.0058 51.3222 44.0819 51.3176 44.158C51.313 44.234 51.292 44.3084 51.2558 44.3766C51.2196 44.4448 51.1689 44.5055 51.1069 44.555Z" fill="white"/>
<defs>
<filter id="filter0_d_159_1204" x="0.8" y="0.8" width="75.4" height="75.4" filterUnits="userSpaceOnUse" color-interpolation-filters="sRGB">
<feFlood flood-opacity="0" result="BackgroundImageFix"/>
<feColorMatrix in="SourceAlpha" type="matrix" values="0 0 0 0 0 0 0 0 0 0 0 0 0 0 0 0 0 0 127 0" result="hardAlpha"/>
<feOffset dy="4"/>
<feGaussianBlur stdDeviation="5.1"/>
<feComposite in2="hardAlpha" operator="out"/>
<feColorMatrix type="matrix" values="0 0 0 0 0 0 0 0 0 0 0 0 0 0 0 0 0 0 0.25 0"/>
<feBlend mode="normal" in2="BackgroundImageFix" result="effect1_dropShadow_159_1204"/>
<feBlend mode="normal" in="SourceGraphic" in2="effect1_dropShadow_159_1204" result="shape"/>
</filter>
</defs>
</svg>
