<svg width="77" height="77" viewBox="0 0 77 77" fill="none" xmlns="http://www.w3.org/2000/svg">
<g filter="url(#filter0_d_159_1203)">
<circle cx="38.5" cy="34.5" r="27.5" fill="#EE4619"/>
</g>
<path d="M45.0015 49.1603C41.2484 49.1603 36.0116 47.2053 30.9738 42.3114C24.5206 36.0426 23.0309 29.4551 24.3777 25.9879C25.3409 23.5087 28.0272 22.6983 29.5424 22.4363C30.5027 22.2719 31.4718 22.7479 31.8969 23.5994L34.2499 28.297C34.6721 29.1399 34.4686 30.1691 33.7541 30.7996L31.7532 32.5654C31.8327 33.193 32.3293 35.1317 35.3473 38.0628C38.3536 40.984 40.3457 41.4727 41.0085 41.5528L42.8242 39.6112C43.4731 38.9178 44.5341 38.7194 45.4003 39.1289L50.2362 41.4146C51.1126 41.8283 51.6048 42.7697 51.4334 43.7019C51.1636 45.1738 50.3295 47.7833 47.7781 48.719C46.995 49.0059 46.0573 49.1603 45.0015 49.1603Z" fill="white"/>
<path d="M52.3536 33.1654C52.0051 33.1654 51.6981 32.9231 51.6361 32.5789C50.6904 27.3131 46.4131 23.1581 40.9925 22.2393C40.5958 22.1721 40.3304 21.8051 40.3997 21.4198C40.4689 21.0345 40.8408 20.7766 41.2433 20.8439C47.2677 21.8653 52.0211 26.4837 53.0733 32.3359C53.1426 32.7213 52.8764 33.0882 52.4805 33.1555C52.4382 33.1626 52.3959 33.1661 52.3543 33.1661L52.3536 33.1654Z" fill="white"/>
<path d="M47.8324 34.1075C47.4846 34.1075 47.1769 33.8652 47.1149 33.521C46.4834 30.0133 43.6331 27.2444 40.0216 26.6303C39.6249 26.563 39.3602 26.1961 39.4295 25.8108C39.4987 25.4261 39.8721 25.1648 40.2738 25.2356C44.4877 25.9517 47.8142 29.1838 48.5521 33.2773C48.6213 33.6626 48.3559 34.0296 47.9593 34.0968C47.917 34.1039 47.8739 34.1075 47.8324 34.1075Z" fill="white"/>
<defs>
<filter id="filter0_d_159_1203" x="0.8" y="0.8" width="75.4" height="75.4" filterUnits="userSpaceOnUse" color-interpolation-filters="sRGB">
<feFlood flood-opacity="0" result="BackgroundImageFix"/>
<feColorMatrix in="SourceAlpha" type="matrix" values="0 0 0 0 0 0 0 0 0 0 0 0 0 0 0 0 0 0 127 0" result="hardAlpha"/>
<feOffset dy="4"/>
<feGaussianBlur stdDeviation="5.1"/>
<feComposite in2="hardAlpha" operator="out"/>
<feColorMatrix type="matrix" values="0 0 0 0 0 0 0 0 0 0 0 0 0 0 0 0 0 0 0.25 0"/>
<feBlend mode="normal" in2="BackgroundImageFix" result="effect1_dropShadow_159_1203"/>
<feBlend mode="normal" in="SourceGraphic" in2="effect1_dropShadow_159_1203" result="shape"/>
</filter>
</defs>
</svg>
