<svg width="121" height="120" viewBox="0 0 121 120" fill="none" xmlns="http://www.w3.org/2000/svg">
<path d="M60.5 0.00634766C52.6207 0.00634756 44.8185 1.55829 37.539 4.57358C30.2595 7.58886 23.6451 12.0084 18.0736 17.5799C12.5021 23.1515 8.08251 29.7658 5.06723 37.0453C2.05195 44.3249 0.5 52.127 0.5 60.0063C0.5 67.8857 2.05195 75.6878 5.06723 82.9674C8.08251 90.2469 12.5021 96.8612 18.0736 102.433C23.6451 108.004 30.2595 112.424 37.539 115.439C44.8185 118.454 52.6207 120.006 60.5 120.006V114.006C53.4086 114.006 46.3867 112.61 39.8351 109.896C33.2835 107.182 27.3306 103.204 22.3162 98.1901C17.3019 93.1758 13.3243 87.2228 10.6105 80.6713C7.89675 74.1197 6.5 67.0977 6.5 60.0063C6.5 52.915 7.89675 45.893 10.6105 39.3414C13.3243 32.7899 17.3019 26.8369 22.3162 21.8226C27.3306 16.8082 33.2835 12.8306 39.8351 10.1169C46.3867 7.4031 53.4086 6.00635 60.5 6.00635V0.00634766Z" fill="#EE4619"/>
<path d="M60.5 0.00634766C52.6207 0.00634756 44.8185 1.55829 37.539 4.57358C30.2595 7.58886 23.6451 12.0084 18.0736 17.5799C12.5021 23.1515 8.08251 29.7658 5.06723 37.0453C2.05195 44.3249 0.5 52.127 0.5 60.0063C0.5 67.8857 2.05195 75.6878 5.06723 82.9674C8.08251 90.2469 12.5021 96.8612 18.0736 102.433C23.6451 108.004 30.2595 112.424 37.539 115.439C44.8185 118.454 52.6207 120.006 60.5 120.006V114.006C53.4086 114.006 46.3867 112.61 39.8351 109.896C33.2835 107.182 27.3306 103.204 22.3162 98.1901C17.3019 93.1758 13.3243 87.2228 10.6105 80.6713C7.89675 74.1197 6.5 67.0977 6.5 60.0063C6.5 52.915 7.89675 45.893 10.6105 39.3414C13.3243 32.7899 17.3019 26.8369 22.3162 21.8226C27.3306 16.8082 33.2835 12.8306 39.8351 10.1169C46.3867 7.4031 53.4086 6.00635 60.5 6.00635V0.00634766Z" fill="#EE4619"/>
</svg>
