<svg width="25" height="23" viewBox="0 0 25 23" fill="none" xmlns="http://www.w3.org/2000/svg">
<path d="M24.886 8.82199C24.8185 8.60207 24.6779 8.4088 24.4852 8.27098C24.2926 8.13316 24.0583 8.0582 23.8171 8.05723L16.4901 7.95298C16.4264 7.95184 16.3645 7.93172 16.3134 7.89542C16.2624 7.85912 16.2245 7.80846 16.2053 7.75064L14.0481 1.09693C13.9758 0.879361 13.8332 0.688961 13.6406 0.552724C13.448 0.416488 13.2151 0.341333 12.975 0.337917C12.7349 0.334501 12.4998 0.402997 12.303 0.533693C12.1062 0.664388 11.9576 0.850647 11.8784 1.06606L9.5209 7.65553C9.49992 7.71278 9.46054 7.76235 9.40832 7.79718C9.3561 7.83201 9.29367 7.85036 9.22987 7.84969L1.89452 7.74532C1.65397 7.74214 1.41854 7.8114 1.22195 7.94317C1.02537 8.07493 0.877727 8.26244 0.800179 8.47887C0.722635 8.69525 0.719171 8.92943 0.790285 9.14781C0.861399 9.36619 1.00344 9.55759 1.19605 9.69453L7.05666 13.8667C7.10807 13.9038 7.14578 13.9554 7.16439 14.0141C7.18295 14.0728 7.18142 14.1356 7.16002 14.1934L4.79422 20.7788C4.71552 20.9953 4.71111 21.2299 4.78157 21.4489C4.85203 21.668 4.99379 21.8601 5.18644 21.9977C5.37909 22.1353 5.61273 22.2113 5.8537 22.2148C6.0947 22.2183 6.33064 22.149 6.52758 22.017L12.5171 18.0095C12.5695 17.9735 12.6328 17.9546 12.6974 17.9555C12.7621 17.9564 12.8247 17.9772 12.8759 18.0146L18.7365 22.1907C18.9282 22.3297 19.1618 22.4066 19.4029 22.41C19.644 22.4134 19.8799 22.3432 20.0759 22.2098C20.2749 22.0793 20.4247 21.8917 20.5032 21.6744C20.5817 21.4571 20.5849 21.2216 20.5123 21.0025L18.3508 14.3526C18.3313 14.2942 18.3317 14.2314 18.3522 14.1733C18.3726 14.1151 18.4119 14.0646 18.4644 14.029L24.4539 10.0254C24.6534 9.89637 24.8033 9.70925 24.8813 9.49224C24.9592 9.27522 24.9609 9.04003 24.886 8.82199Z" fill="white"/>
</svg>
