<svg width="26" height="23" viewBox="0 0 26 23" fill="none" xmlns="http://www.w3.org/2000/svg">
<path d="M25.0157 8.60397C24.9481 8.38406 24.8075 8.19078 24.6148 8.05296C24.4222 7.91514 24.1879 7.84019 23.9468 7.83921L16.6198 7.73497C16.556 7.73382 16.4942 7.71371 16.4431 7.67741C16.392 7.64111 16.3542 7.59044 16.335 7.53262L14.1778 0.878914C14.1055 0.661344 13.9629 0.470943 13.7702 0.334707C13.5776 0.19847 13.3447 0.123315 13.1046 0.119899C12.8645 0.116483 12.6294 0.18498 12.4326 0.315676C12.2358 0.446371 12.0872 0.632629 12.0081 0.848044L9.65054 7.43752C9.62956 7.49476 9.59017 7.54433 9.53796 7.57916C9.48574 7.61399 9.42331 7.63234 9.35951 7.63167L2.02416 7.5273C1.78361 7.52412 1.54818 7.59339 1.35159 7.72515C1.15501 7.85692 1.00737 8.04442 0.929817 8.26085C0.852274 8.47724 0.84881 8.71141 0.919924 8.92979C0.991038 9.14818 1.13308 9.33957 1.32569 9.47651L7.18629 13.6487C7.23771 13.6858 7.27542 13.7374 7.29403 13.7961C7.31259 13.8548 7.31106 13.9176 7.28966 13.9754L4.92386 20.5608C4.84516 20.7773 4.84075 21.0119 4.91121 21.2309C4.98167 21.4499 5.12342 21.642 5.31607 21.7797C5.50872 21.9173 5.74237 21.9933 5.98333 21.9968C6.22434 22.0003 6.46027 21.931 6.65721 21.799L12.6467 17.7914C12.6992 17.7555 12.7624 17.7366 12.827 17.7375C12.8917 17.7384 12.9543 17.7591 13.0056 17.7966L18.8661 21.9727C19.0579 22.1117 19.2914 22.1885 19.5325 22.192C19.7736 22.1954 20.0095 22.1252 20.2055 21.9918C20.4045 21.8613 20.5543 21.6736 20.6328 21.4564C20.7114 21.2391 20.7146 21.0036 20.6419 20.7844L18.4805 14.1346C18.4609 14.0762 18.4614 14.0134 18.4818 13.9553C18.5022 13.8971 18.5416 13.8466 18.5941 13.811L24.5835 9.80742C24.783 9.67835 24.933 9.49124 25.0109 9.27422C25.0888 9.05721 25.0905 8.82201 25.0157 8.60397Z" fill="white"/>
</svg>
