<svg width="22" height="23" viewBox="0 0 22 23" fill="none" xmlns="http://www.w3.org/2000/svg">
<path d="M21.443 8.69745C21.3852 8.47648 21.265 8.28229 21.1002 8.14381C20.9355 8.00534 20.735 7.93002 20.5288 7.92905L14.262 7.8243C14.2075 7.82315 14.1546 7.80294 14.1109 7.76647C14.0672 7.72999 14.0349 7.67908 14.0185 7.62099L12.1734 0.935598C12.1116 0.716992 11.9896 0.525684 11.8248 0.388799C11.6601 0.251914 11.4609 0.176401 11.2556 0.172968C11.0502 0.169536 10.8491 0.238359 10.6808 0.369677C10.5124 0.500994 10.3854 0.688139 10.3177 0.90458L8.30128 7.52543C8.28334 7.58295 8.24966 7.63275 8.20499 7.66775C8.16033 7.70275 8.10694 7.72118 8.05237 7.72051L1.77847 7.61564C1.57273 7.61245 1.37137 7.68204 1.20323 7.81443C1.03509 7.94683 0.908812 8.13523 0.842486 8.35268C0.776163 8.5701 0.7732 8.80539 0.834024 9.02481C0.894848 9.24424 1.01633 9.43654 1.18107 9.57414L6.19363 13.7662C6.23761 13.8035 6.26986 13.8553 6.28577 13.9143C6.30165 13.9732 6.30034 14.0363 6.28203 14.0944L4.25858 20.7112C4.19126 20.9287 4.18749 21.1644 4.24776 21.3845C4.30802 21.6046 4.42926 21.7976 4.59404 21.9359C4.75881 22.0742 4.95865 22.1505 5.16474 22.1541C5.37087 22.1575 5.57267 22.088 5.74111 21.9553L10.8639 17.9287C10.9088 17.8926 10.9629 17.8735 11.0181 17.8745C11.0735 17.8754 11.127 17.8962 11.1708 17.9338L16.1833 22.1299C16.3474 22.2695 16.5471 22.3467 16.7533 22.3501C16.9595 22.3536 17.1613 22.2831 17.3289 22.149C17.4991 22.0179 17.6272 21.8294 17.6944 21.611C17.7616 21.3927 17.7643 21.1561 17.7022 20.9359L15.8535 14.2544C15.8368 14.1957 15.8372 14.1326 15.8546 14.0742C15.8721 14.0158 15.9057 13.9651 15.9507 13.9293L21.0734 9.90663C21.244 9.77694 21.3723 9.58893 21.4389 9.37089C21.5056 9.15284 21.507 8.91653 21.443 8.69745Z" fill="white"/>
</svg>
