<svg width="24" height="23" viewBox="0 0 24 23" fill="none" xmlns="http://www.w3.org/2000/svg">
<path d="M23.1303 8.69745C23.0667 8.47648 22.9343 8.28229 22.7529 8.14381C22.5716 8.00534 22.351 7.93002 22.124 7.92904L15.2262 7.8243C15.1661 7.82315 15.1079 7.80294 15.0598 7.76646C15.0117 7.72999 14.9761 7.67908 14.9581 7.62099L12.9272 0.935598C12.8591 0.716991 12.7249 0.525684 12.5435 0.388799C12.3622 0.251914 12.143 0.176401 11.9169 0.172968C11.6909 0.169536 11.4696 0.238359 11.2843 0.369677C11.099 0.500994 10.9591 0.688139 10.8846 0.90458L8.66515 7.52543C8.64541 7.58295 8.60833 7.63275 8.55917 7.66775C8.51001 7.70275 8.45124 7.72118 8.39117 7.72051L1.48548 7.61564C1.25903 7.61244 1.03738 7.68204 0.852312 7.81443C0.66724 7.94682 0.528247 8.13523 0.455241 8.35268C0.38224 8.5701 0.378978 8.80539 0.445927 9.02481C0.512876 9.24423 0.646595 9.43654 0.827924 9.57413L6.34525 13.7662C6.39366 13.8035 6.42916 13.8553 6.44668 13.9143C6.46415 13.9732 6.46271 14.0363 6.44256 14.0944L4.21534 20.7112C4.14125 20.9287 4.1371 21.1644 4.20343 21.3845C4.26977 21.6046 4.40322 21.7976 4.58458 21.9359C4.76595 22.0742 4.98591 22.1505 5.21276 22.1541C5.43965 22.1575 5.66176 22.088 5.84717 21.9553L11.4858 17.9287C11.5352 17.8926 11.5948 17.8735 11.6556 17.8745C11.7165 17.8754 11.7754 17.8962 11.8237 17.9338L17.341 22.1299C17.5215 22.2695 17.7413 22.3467 17.9683 22.3501C18.1953 22.3536 18.4174 22.2831 18.6019 22.149C18.7892 22.0179 18.9302 21.8294 19.0042 21.611C19.0781 21.3927 19.0811 21.1561 19.0127 20.9359L16.9779 14.2544C16.9595 14.1957 16.9599 14.1326 16.9791 14.0742C16.9984 14.0158 17.0354 13.965 17.0848 13.9293L22.7235 9.90662C22.9113 9.77694 23.0525 9.58893 23.1258 9.37088C23.1992 9.15284 23.2008 8.91652 23.1303 8.69745Z" fill="white"/>
</svg>
